<svg version="1.0" xmlns="http://www.w3.org/2000/svg" width="346.667" height="346.667" viewBox="0 0 260 260"><path d="M0 130v130h260V0H0v130zm225 1v34H40V97h185v34z"/><path d="M108 131v31h114v-62H108v31zm92.1-12.3c4.2 4.6 5.6 10.1 4.4 17.8-1.8 12.1-15.9 17.4-25 9.4-4.3-3.8-5.9-8.6-5.2-16 1-11 6.7-16.3 16.6-15.6 4.8.3 5.8.8 9.2 4.4zM128 132c0 14.4-.2 17-1.5 17s-1.5-2.6-1.5-17 .2-17 1.5-17 1.5 2.6 1.5 17zm23.5-4.1c4.7 7.2 9 13.3 9.5 13.6.6.4 1-4.2 1-12.9 0-11.4.2-13.6 1.5-13.6s1.5 2.6 1.5 17c0 22-.3 22.1-12.6 3.5-4.8-7.4-9.1-13.5-9.4-13.5-.3 0-.4 6.1-.2 13.5.3 11.8.2 13.5-1.2 13.5s-1.6-2.2-1.6-17c0-14.4.2-17 1.5-17 .8 0 5.3 5.8 10 12.9z"/><path d="M187 117.7c-6.8 2.1-9 5.6-9 14.7 0 5.4.4 6.9 2.5 9.5 5.5 6.5 15.5 5.8 18.9-1.4 3.1-6.5 1.6-18-2.7-20.8-2.6-1.6-7.5-2.7-9.7-2zm-123.8-1.5c-.8.8-1.2 6-1.2 16.9 0 18.3-.9 17.1 12.6 16 8.8-.7 10.6-1.6 13.1-6.8 1.5-3.3 1.5-3.5-1.4-7.1-2.8-3.6-2.8-3.8-1.1-5.5 2.1-2 2.3-7.4.5-9.9-3-3.9-19.6-6.5-22.5-3.6zm15.9 7.4c1.8 2.1 0 4.7-3.7 5.5-4.3.8-5.4.1-5.4-3.7 0-3.3.1-3.4 3.9-3.4 2.3 0 4.4.6 5.2 1.6zm-.5 12.2c4 2.7 1.5 7.1-4.4 7.9l-4.2.6V135h3.8c2 0 4.2.4 4.8.8z"/></svg>