<?xml version="1.0" standalone="no"?>
<!DOCTYPE svg PUBLIC "-//W3C//DTD SVG 20010904//EN"
 "http://www.w3.org/TR/2001/REC-SVG-20010904/DTD/svg10.dtd">
<svg version="1.0" xmlns="http://www.w3.org/2000/svg"
 width="260.000000pt" height="260.000000pt" viewBox="0 0 260.000000 260.000000"
 preserveAspectRatio="xMidYMid meet">
<metadata>
Created by potrace 1.11, written by Peter Selinger 2001-2013
</metadata>
<g transform="translate(0.000000,260.000000) scale(0.100000,-0.100000)"
fill="#000000" stroke="none">
<path d="M0 1300 l0 -1300 1300 0 1300 0 0 1300 0 1300 -1300 0 -1300 0 0
-1300z m2250 -10 l0 -340 -925 0 -925 0 0 340 0 340 925 0 925 0 0 -340z"/>
<path d="M1080 1290 l0 -310 570 0 570 0 0 310 0 310 -570 0 -570 0 0 -310z
m921 123 c42 -46 56 -101 44 -178 -18 -121 -159 -174 -250 -94 -43 38 -59 86
-52 160 10 110 67 163 166 156 48 -3 58 -8 92 -44z m-721 -133 c0 -144 -2
-170 -15 -170 -13 0 -15 26 -15 170 0 144 2 170 15 170 13 0 15 -26 15 -170z
m235 41 c47 -72 90 -133 95 -136 6 -4 10 42 10 129 0 114 2 136 15 136 13 0
15 -26 15 -170 0 -220 -3 -221 -126 -35 -48 74 -91 135 -94 135 -3 0 -4 -61
-2 -135 3 -118 2 -135 -12 -135 -14 0 -16 22 -16 170 0 144 2 170 15 170 8 0
53 -58 100 -129z"/>
<path d="M1870 1423 c-68 -21 -90 -56 -90 -147 0 -54 4 -69 25 -95 55 -65 155
-58 189 14 31 65 16 180 -27 208 -26 16 -75 27 -97 20z"/>
<path d="M632 1438 c-8 -8 -12 -60 -12 -169 0 -183 -9 -171 126 -160 88 7 106
16 131 68 15 33 15 35 -14 71 -28 36 -28 38 -11 55 21 20 23 74 5 99 -30 39
-196 65 -225 36z m159 -74 c18 -21 0 -47 -37 -55 -43 -8 -54 -1 -54 37 0 33 1
34 39 34 23 0 44 -6 52 -16z m-5 -122 c40 -27 15 -71 -44 -79 l-42 -6 0 47 0
46 38 0 c20 0 42 -4 48 -8z"/>
</g>
</svg>
